<svg width="130" height="120" viewBox="0 0 130 120" fill="none" xmlns="http://www.w3.org/2000/svg">
<g filter="url(#filter0_d_1403_373)">
<rect x="30" y="15" width="70" height="60" rx="30" fill="white"/>
</g>
<path fill-rule="evenodd" clip-rule="evenodd" d="M71.6814 31.6508C70.6009 31.5625 69.2566 31.5625 67.542 31.5625H62.458C60.7434 31.5625 59.3991 31.5625 58.3187 31.6508C57.2185 31.7407 56.3096 31.9267 55.4869 32.3459C54.1345 33.035 53.035 34.1345 52.3459 35.4869C51.9267 36.3096 51.7407 37.2185 51.6508 38.3187C51.5625 39.3991 51.5625 40.7434 51.5625 42.458V47.7854C51.5625 50.907 54.093 53.4375 57.2146 53.4375H57.9668C58.2774 53.4375 58.4898 53.7513 58.3744 54.0396C57.5161 56.1855 59.9874 58.1254 61.868 56.7821L65.1314 54.4511L65.1929 54.4074C66.079 53.783 67.1349 53.4445 68.2189 53.4376L68.2943 53.4375H69.1639C71.0996 53.4377 72.2805 53.438 73.2724 53.1471C75.6214 52.4584 77.4584 50.6214 78.1471 48.2724C78.438 47.2805 78.4377 46.0997 78.4375 44.164V42.458C78.4375 40.7434 78.4375 39.3991 78.3492 38.3187C78.2594 37.2185 78.0732 36.3096 77.6541 35.4869C76.965 34.1345 75.8655 33.035 74.513 32.3459C73.6904 31.9267 72.7815 31.7407 71.6814 31.6508ZM56.3382 34.0165C56.8525 33.7545 57.4871 33.5999 58.4714 33.5195C59.4665 33.4382 60.7344 33.4375 62.5 33.4375H67.5C69.2656 33.4375 70.5335 33.4382 71.5286 33.5195C72.5129 33.5999 73.1475 33.7545 73.6619 34.0165C74.6614 34.5258 75.4741 35.3386 75.9835 36.3382C76.2455 36.8525 76.4 37.4871 76.4805 38.4714C76.5618 39.4665 76.5625 40.7344 76.5625 42.5V43.9803C76.5625 46.1576 76.553 47.0454 76.3479 47.7447C75.8388 49.481 74.481 50.8388 72.7448 51.3479C72.0454 51.553 71.1576 51.5625 68.9803 51.5625H68.2943L68.2069 51.5626C66.7403 51.572 65.3116 52.0299 64.1128 52.8746L60.7782 55.2564C60.4214 55.5112 59.9525 55.1431 60.1153 54.736C60.7233 53.216 59.6039 51.5625 57.9668 51.5625H57.2146C55.1285 51.5625 53.4375 49.8715 53.4375 47.7854V42.5C53.4375 40.7344 53.4382 39.4665 53.5195 38.4714C53.5999 37.4871 53.7545 36.8525 54.0165 36.3382C54.5258 35.3386 55.3386 34.5258 56.3382 34.0165Z" fill="#124944"/>
<path d="M61.25 42.5C61.25 43.1904 60.6904 43.75 60 43.75C59.3097 43.75 58.75 43.1904 58.75 42.5C58.75 41.8097 59.3097 41.25 60 41.25C60.6904 41.25 61.25 41.8097 61.25 42.5Z" fill="#124944"/>
<path d="M66.25 42.5C66.25 43.1904 65.6904 43.75 65 43.75C64.3096 43.75 63.75 43.1904 63.75 42.5C63.75 41.8097 64.3096 41.25 65 41.25C65.6904 41.25 66.25 41.8097 66.25 42.5Z" fill="#124944"/>
<path d="M71.25 42.5C71.25 43.1904 70.6904 43.75 70 43.75C69.3096 43.75 68.75 43.1904 68.75 42.5C68.75 41.8097 69.3096 41.25 70 41.25C70.6904 41.25 71.25 41.8097 71.25 42.5Z" fill="#124944"/>
<defs>
<filter id="filter0_d_1403_373" x="0" y="0" width="130" height="120" filterUnits="userSpaceOnUse" color-interpolation-filters="sRGB">
<feFlood flood-opacity="0" result="BackgroundImageFix"/>
<feColorMatrix in="SourceAlpha" type="matrix" values="0 0 0 0 0 0 0 0 0 0 0 0 0 0 0 0 0 0 127 0" result="hardAlpha"/>
<feOffset dy="15"/>
<feGaussianBlur stdDeviation="15"/>
<feComposite in2="hardAlpha" operator="out"/>
<feColorMatrix type="matrix" values="0 0 0 0 0.12549 0 0 0 0 0.12549 0 0 0 0 0.12549 0 0 0 0.2 0"/>
<feBlend mode="normal" in2="BackgroundImageFix" result="effect1_dropShadow_1403_373"/>
<feBlend mode="normal" in="SourceGraphic" in2="effect1_dropShadow_1403_373" result="shape"/>
</filter>
</defs>
</svg>
