<svg width="30" height="30" viewBox="0 0 30 30" fill="none" xmlns="http://www.w3.org/2000/svg">
<g clip-path="url(#clip0_920_35)">
<path d="M1.59894 11.8069C1.70514 11.8501 1.81752 11.8717 1.92991 11.8717C2.04618 11.8717 2.16245 11.8485 2.27163 11.8023L4.90057 10.6929C5.34757 10.5041 5.55723 9.98864 5.3684 9.54141C5.1798 9.09417 4.66413 8.88475 4.2169 9.07334L3.57397 9.3448C5.56913 4.80286 10.0836 1.81641 15.1066 1.81641C20.8498 1.81641 25.865 5.69985 27.3029 11.2601C27.4054 11.6563 27.762 11.9193 28.1532 11.9193C28.2259 11.9193 28.3001 11.9101 28.3738 11.8911C28.8437 11.7696 29.1261 11.2901 29.0046 10.8202C27.3663 4.4838 21.6511 0.0585938 15.1066 0.0585938C9.35049 0.0585938 4.18096 3.50052 1.92693 8.72521L1.6303 8.02209C1.44147 7.57508 0.926029 7.36543 0.478793 7.55402C0.0315575 7.74285 -0.17787 8.25852 0.0107293 8.70553L1.12012 11.3345C1.21076 11.5492 1.38288 11.7192 1.59894 11.8069Z" fill="#124944"/>
<path d="M29.8721 21.233L28.7627 18.6043C28.672 18.3893 28.4997 18.2195 28.2838 18.1316C28.0678 18.0439 27.8258 18.0456 27.6112 18.1362L24.9822 19.2458C24.5352 19.4344 24.3256 19.9501 24.5144 20.3973C24.703 20.8445 25.2187 21.054 25.6659 20.8651L26.4017 20.5546C24.4565 25.2183 19.8788 28.3004 14.7764 28.3004C9.03302 28.3004 4.01776 24.4169 2.57992 18.8567C2.45839 18.3866 1.97888 18.1046 1.50898 18.2257C1.03909 18.3472 0.756648 18.8267 0.878184 19.2966C2.51652 25.633 8.23171 30.0582 14.7764 30.0582C20.5648 30.0582 25.7602 26.5774 27.9936 21.303L28.2525 21.9164C28.3942 22.2522 28.7199 22.4538 29.0627 22.4538C29.1765 22.4538 29.2925 22.4316 29.404 22.3845C29.8512 22.1956 30.0607 21.6802 29.8721 21.233Z" fill="#124944"/>
<path d="M13.179 24.7328C13.2763 24.7681 13.377 24.7848 13.4766 24.7848C13.7336 24.7848 13.9838 24.6719 14.1541 24.4659L21.5167 15.5599C21.7337 15.2974 21.7795 14.9335 21.6346 14.6254C21.4895 14.3175 21.1798 14.1209 20.8395 14.1209H17.6367V6.15239C17.6367 5.7816 17.4042 5.45087 17.0554 5.32521C16.7068 5.19978 16.3168 5.30667 16.0803 5.59232L8.71766 14.4983C8.50068 14.7606 8.4549 15.1248 8.59979 15.4326C8.7449 15.7407 9.0548 15.9373 9.39515 15.9373H12.5979V23.9059C12.5977 24.2766 12.8302 24.6074 13.179 24.7328ZM11.2619 14.1795L15.8789 8.59479V14.9998C15.8789 15.4853 16.2724 15.8787 16.7578 15.8787H18.9723L14.3555 21.4635V15.0584C14.3555 14.573 13.9618 14.1795 13.4766 14.1795H11.2619Z" fill="#785226"/>
</g>
<defs>
<clipPath id="clip0_920_35">
<rect width="30" height="30" fill="white"/>
</clipPath>
</defs>
</svg>
