<svg width="12" height="12" viewBox="0 0 12 12" fill="none" xmlns="http://www.w3.org/2000/svg">
<path d="M4.84796 6.62401C4.81196 6.62401 4.01996 6.62401 3.65996 6.62401C3.46796 6.62401 3.40796 6.55201 3.40796 6.37201C3.40796 5.89201 3.40796 5.40001 3.40796 4.92001C3.40796 4.72801 3.47996 4.66801 3.65996 4.66801H4.84796C4.84796 4.63201 4.84796 3.93601 4.84796 3.61201C4.84796 3.13201 4.93196 2.67601 5.17196 2.25601C5.42396 1.82401 5.78396 1.53601 6.23996 1.36801C6.53996 1.26001 6.83996 1.21201 7.16396 1.21201H8.33996C8.50796 1.21201 8.57996 1.28401 8.57996 1.45201V2.82001C8.57996 2.98801 8.50796 3.06001 8.33996 3.06001C8.01596 3.06001 7.69196 3.06001 7.36796 3.07201C7.04396 3.07201 6.87596 3.22801 6.87596 3.56401C6.86396 3.92401 6.87596 4.27201 6.87596 4.64401H8.26796C8.45996 4.64401 8.53196 4.71601 8.53196 4.90801V6.36001C8.53196 6.55201 8.47196 6.61201 8.26796 6.61201C7.83596 6.61201 6.91196 6.61201 6.87596 6.61201V10.524C6.87596 10.728 6.81596 10.8 6.59996 10.8C6.09596 10.8 5.60396 10.8 5.09996 10.8C4.91996 10.8 4.84796 10.728 4.84796 10.548C4.84796 9.28801 4.84796 6.66001 4.84796 6.62401Z" fill="#124944"/>
</svg>
