<svg width="30" height="30" viewBox="0 0 30 30" fill="none" xmlns="http://www.w3.org/2000/svg">
<g clip-path="url(#clip0_920_54)">
<path d="M25.718 12.5811H24.2804C24.0873 12.5811 23.9021 12.6749 23.7962 12.8371L23.7962 12.8371L23.7945 12.8398C23.6946 13.0019 23.6867 13.2063 23.7899 13.3738L23.7898 13.3736L23.8964 13.3082L23.79 13.3738L25.718 12.5811ZM25.718 12.5811C24.8623 9.01405 22.0627 6.10185 18.2565 4.90191M25.718 12.5811L29.0441 13.375M29.0441 13.375C29.1514 13.2094 29.1507 13.0043 29.0494 12.8398C28.9471 12.674 28.7596 12.5811 28.5634 12.5811H26.8666M29.0441 13.375C29.0438 13.3755 29.0434 13.376 29.0431 13.3766L28.9384 13.3082M29.0441 13.375L29.045 13.3736L28.9384 13.3082M26.8666 12.5811C25.9907 8.54201 22.8679 5.24238 18.6168 3.90368M26.8666 12.5811C26.8738 12.6143 26.8808 12.6475 26.8877 12.6807L26.7653 12.7061M26.8666 12.5811H26.7653V12.7061M18.6168 3.90368C18.3282 3.81037 18.0077 3.95285 17.9058 4.22854L17.9058 4.22854L17.9055 4.22929C17.8021 4.51438 17.9695 4.81205 18.2565 4.90191M18.6168 3.90368C18.6169 3.90374 18.6171 3.90379 18.6173 3.90385L18.5787 4.02275M18.6168 3.90368C18.6166 3.90363 18.6164 3.90357 18.6162 3.90352L18.5787 4.02275M18.2565 4.90191L18.2941 4.7827L18.2568 4.902C18.2567 4.90197 18.2566 4.90194 18.2565 4.90191ZM18.5787 4.02275C22.8256 5.35992 25.9295 8.66964 26.7653 12.7061M18.5787 4.02275C18.3483 3.948 18.0998 4.06427 18.023 4.27191L26.7653 12.7061M26.7653 12.7061H28.5634C28.7216 12.7061 28.8661 12.7808 28.9429 12.9054C29.0198 13.03 29.0198 13.1837 28.9384 13.3082M26.7653 12.7061L28.9384 13.3082M28.9384 13.3082L26.7969 16.7965L28.9384 13.3082ZM27.5901 13.6367L26.4219 15.5401L25.2538 13.6367H27.5901Z" fill="#124944" stroke="#124944" stroke-width="0.25"/>
<path d="M16.8621 4.0629L16.8619 4.06303L13.3751 6.20291C13.2912 6.25721 13.1971 6.28092 13.109 6.28092C13.017 6.28092 12.9221 6.25727 12.8372 6.20189C12.6751 6.09606 12.5812 5.91087 12.5812 5.71784V4.28083C9.01429 5.13624 6.1022 7.93479 4.90231 11.7395C4.82887 11.9732 4.62528 12.125 4.40106 12.125C4.35308 12.125 4.28925 12.1202 4.22621 12.0936C3.94673 11.9901 3.81164 11.6697 3.90411 11.3839C5.24274 7.12988 8.54223 4.00813 12.5812 3.137V1.44091C12.5812 1.24534 12.6736 1.05837 12.8386 0.955983C13.0042 0.84865 13.2092 0.849222 13.3737 0.950493L16.8621 4.0629ZM16.8621 4.0629C17.026 3.9619 17.125 3.77569 17.125 3.57712C17.125 3.37855 17.026 3.19234 16.8621 3.09134L16.8619 3.09121L13.3739 0.950616L16.8621 4.0629ZM13.6368 2.41396L15.5401 3.58164L13.6368 4.74931V2.41396Z" fill="#124944" stroke="#124944" stroke-width="0.25"/>
<path d="M11.739 25.0947C7.92718 23.901 5.12542 20.9845 4.27467 17.4119L6.09495 17.0873C6.17169 16.9625 6.17621 16.8086 6.09946 16.6838L6.20606 16.6185L6.20594 16.6183L4.06664 13.1256C4.06657 13.1255 4.06651 13.1253 4.06644 13.1252C3.96071 12.9508 3.76164 12.875 3.57993 12.875C3.39796 12.875 3.19861 12.9509 3.09067 13.1242L3.09018 13.125L0.950533 16.6183C0.950511 16.6184 0.950488 16.6184 0.950466 16.6185C0.849252 16.7831 0.848658 16.9883 0.955892 17.1541C1.05819 17.3193 1.2451 17.4119 1.44072 17.4119H3.13145C4.00217 21.4572 7.12282 24.762 11.3844 26.0985L11.3844 26.0985L11.3885 26.0997C11.4415 26.1143 11.5026 26.125 11.5617 26.125C11.7873 26.125 12.0105 25.995 12.0943 25.7689L12.0943 25.7688C12.1984 25.4869 12.0303 25.1845 11.739 25.0947ZM2.40868 16.355L3.57598 14.4486L4.74327 16.355H2.40868Z" fill="#124944" stroke="#124944" stroke-width="0.25"/>
<path d="M25.0974 18.2582C23.9012 22.066 20.9881 24.8679 17.4201 25.7188V24.2821C17.4201 24.0891 17.3263 23.904 17.164 23.7982L17.1641 23.7981L17.1613 23.7965C16.9986 23.6962 16.7991 23.6895 16.6288 23.791L16.6288 23.791L16.6275 23.7918L13.1382 25.9318L13.138 25.9319C12.9741 26.0329 12.875 26.219 12.875 26.4176C12.875 26.6161 12.9741 26.8023 13.138 26.9033L13.1382 26.9034L16.6237 29.041C16.7092 29.1015 16.8047 29.125 16.8922 29.125C16.9837 29.125 17.0781 29.1016 17.1626 29.0469C17.3277 28.9446 17.4201 28.7576 17.4201 28.5621V26.8666C21.4604 25.9958 24.7609 22.8751 26.0959 18.618C26.1887 18.3314 26.0524 18.0102 25.7713 17.9076C25.483 17.7978 25.1864 17.9741 25.0974 18.2582ZM16.3643 25.2548V27.5894L14.4604 26.4221L16.3643 25.2548Z" fill="#124944" stroke="#124944" stroke-width="0.25"/>
<path d="M15.0094 8.61096C14.7516 8.61096 14.5547 8.81252 14.5547 9.06565C14.5547 9.31877 14.7609 9.52034 15.0094 9.52034C15.2625 9.52034 15.4641 9.31877 15.4641 9.06565C15.4641 8.81252 15.2578 8.61096 15.0094 8.61096Z" fill="#785226"/>
<path d="M13.4719 8.8125C13.2141 8.8125 13.0172 9.01406 13.0172 9.26719C13.0172 9.52031 13.2235 9.72188 13.4719 9.72188C13.725 9.72188 13.9266 9.52031 13.9266 9.26719C13.9266 9.01406 13.725 8.8125 13.4719 8.8125Z" fill="#785226"/>
<path d="M12.0421 9.40308H12.0374C11.7843 9.40308 11.5874 9.60464 11.5874 9.85776C11.5874 10.1109 11.7937 10.3125 12.0421 10.3125C12.2905 10.3125 12.4968 10.1109 12.4968 9.85776C12.4968 9.60933 12.2905 9.40308 12.0421 9.40308Z" fill="#785226"/>
<path d="M10.8141 10.35H10.8094C10.5562 10.35 10.3594 10.5515 10.3594 10.8047C10.3594 11.0578 10.5656 11.2594 10.8141 11.2594C11.0672 11.2594 11.2688 11.0578 11.2688 10.8047C11.2641 10.5515 11.0625 10.35 10.8141 10.35Z" fill="#785226"/>
<path d="M9.86716 11.5781C9.60935 11.5781 9.41248 11.7797 9.41248 12.0328C9.41248 12.2859 9.61873 12.4875 9.86716 12.4875C10.1203 12.4875 10.3219 12.2859 10.3219 12.0328C10.3219 11.7797 10.1203 11.5781 9.86716 11.5781Z" fill="#785226"/>
<path d="M9.73115 13.4625C9.73115 13.2094 9.52959 13.0078 9.27647 13.0078H9.27178C9.01865 13.0078 8.82178 13.2094 8.82178 13.4625C8.82178 13.7156 9.02803 13.9172 9.27647 13.9172C9.5249 13.9172 9.73115 13.7156 9.73115 13.4625Z" fill="#785226"/>
<path d="M8.6156 15C8.6156 15.2531 8.82185 15.4547 9.07029 15.4547C9.32341 15.4547 9.52498 15.2531 9.52498 15C9.52498 14.7469 9.32341 14.5453 9.07029 14.5453H9.0656C8.81716 14.5453 8.6156 14.7469 8.6156 15Z" fill="#785226"/>
<path d="M9.27654 16.9921C9.52967 16.9921 9.73123 16.7906 9.73123 16.5374C9.73123 16.2843 9.52967 16.0828 9.27654 16.0828H9.27186C9.01873 16.0828 8.82186 16.2843 8.82186 16.5374C8.81717 16.7859 9.02342 16.9921 9.27654 16.9921Z" fill="#785226"/>
<path d="M9.86716 18.4218C10.1203 18.4218 10.3219 18.2203 10.3219 17.9671C10.3219 17.714 10.1203 17.5125 9.86716 17.5125H9.86248C9.60935 17.5125 9.41248 17.714 9.41248 17.9671C9.41248 18.2203 9.61873 18.4218 9.86716 18.4218Z" fill="#785226"/>
<path d="M10.8141 18.7406H10.8094C10.5562 18.7406 10.3594 18.9422 10.3594 19.1953C10.3594 19.4484 10.5656 19.65 10.8141 19.65C11.0672 19.65 11.2688 19.4484 11.2688 19.1953C11.2688 18.9422 11.0625 18.7406 10.8141 18.7406Z" fill="#785226"/>
<path d="M12.0421 19.6875H12.0374C11.7843 19.6875 11.5874 19.8891 11.5874 20.1422C11.5874 20.3953 11.7937 20.5969 12.0421 20.5969C12.2905 20.5969 12.4968 20.3953 12.4968 20.1422C12.4968 19.8891 12.2905 19.6875 12.0421 19.6875Z" fill="#785226"/>
<path d="M13.4719 20.2781C13.2141 20.2781 13.0172 20.4796 13.0172 20.7328C13.0172 20.9859 13.2235 21.1875 13.4719 21.1875C13.725 21.1875 13.9266 20.9859 13.9266 20.7328C13.9266 20.4796 13.725 20.2781 13.4719 20.2781Z" fill="#785226"/>
<path d="M15.0094 20.4797C14.7516 20.4797 14.5547 20.6813 14.5547 20.9344C14.5547 21.1875 14.7609 21.3891 15.0094 21.3891C15.2625 21.3891 15.4641 21.1875 15.4641 20.9344C15.4641 20.686 15.2578 20.4797 15.0094 20.4797Z" fill="#785226"/>
<path d="M16.5468 20.2781H16.5422C16.289 20.2781 16.0922 20.4796 16.0922 20.7328C16.0922 20.9859 16.2984 21.1875 16.5468 21.1875C16.8 21.1875 17.0015 20.9859 17.0015 20.7328C17.0015 20.4796 16.7953 20.2781 16.5468 20.2781Z" fill="#785226"/>
<path d="M17.9765 20.5969C18.2297 20.5969 18.4312 20.3953 18.4312 20.1422C18.4312 19.8891 18.2297 19.6875 17.9765 19.6875H17.9719C17.7187 19.6875 17.5219 19.8891 17.5219 20.1422C17.5219 20.3906 17.7281 20.5969 17.9765 20.5969Z" fill="#785226"/>
<path d="M19.2047 19.65C19.4578 19.65 19.6594 19.4484 19.6594 19.1953C19.6594 18.9422 19.4578 18.7406 19.2047 18.7406H19.2C18.9469 18.7406 18.75 18.9422 18.75 19.1953C18.75 19.4484 18.9563 19.65 19.2047 19.65Z" fill="#785226"/>
<path d="M20.1515 18.4218C20.4046 18.4218 20.6062 18.2203 20.6062 17.9671C20.6062 17.714 20.4046 17.5125 20.1515 17.5125H20.1468C19.8937 17.5125 19.6968 17.714 19.6968 17.9671C19.6968 18.2203 19.8983 18.4218 20.1515 18.4218Z" fill="#785226"/>
<path d="M20.7375 16.0828C20.4844 16.0828 20.2875 16.2843 20.2875 16.5374C20.2875 16.7906 20.4937 16.9921 20.7422 16.9921C20.9953 16.9921 21.1969 16.7906 21.1969 16.5374C21.1969 16.2843 20.9953 16.0828 20.7375 16.0828Z" fill="#785226"/>
<path d="M21.3984 15C21.3984 14.7469 21.1968 14.5453 20.9437 14.5453H20.939C20.6859 14.5453 20.489 14.7469 20.489 15C20.489 15.2531 20.6953 15.4547 20.9437 15.4547C21.1968 15.4547 21.3984 15.2531 21.3984 15Z" fill="#785226"/>
<path d="M20.7422 13.0078C20.4844 13.0078 20.2875 13.2094 20.2875 13.4625C20.2875 13.7156 20.4937 13.9172 20.7422 13.9172C20.9953 13.9172 21.1969 13.7156 21.1969 13.4625C21.1969 13.2141 20.9953 13.0078 20.7422 13.0078Z" fill="#785226"/>
<path d="M20.1515 11.5781C19.8937 11.5781 19.6968 11.7797 19.6968 12.0328C19.6968 12.2859 19.903 12.4875 20.1515 12.4875C20.4046 12.4875 20.6062 12.2859 20.6062 12.0328C20.6062 11.7797 20.3999 11.5781 20.1515 11.5781Z" fill="#785226"/>
<path d="M19.2047 11.2594C19.4578 11.2594 19.6594 11.0578 19.6594 10.8047C19.6594 10.5515 19.4578 10.35 19.2047 10.35H19.2C18.9469 10.35 18.75 10.5515 18.75 10.8047C18.75 11.0531 18.9563 11.2594 19.2047 11.2594Z" fill="#785226"/>
<path d="M17.9765 10.3125C18.2297 10.3125 18.4312 10.1109 18.4312 9.85776C18.4312 9.60464 18.2297 9.40308 17.9765 9.40308H17.9719C17.7187 9.40308 17.5219 9.60464 17.5219 9.85776C17.5219 10.1109 17.7281 10.3125 17.9765 10.3125Z" fill="#785226"/>
<path d="M16.5468 8.8125H16.5422C16.289 8.8125 16.0922 9.01406 16.0922 9.26719C16.0922 9.52031 16.2984 9.72188 16.5468 9.72188C16.8 9.72188 17.0015 9.52031 17.0015 9.26719C17.0015 9.01406 16.7953 8.8125 16.5468 8.8125Z" fill="#785226"/>
</g>
<defs>
<clipPath id="clip0_920_54">
<rect width="30" height="30" fill="white"/>
</clipPath>
</defs>
</svg>
