<svg width="30" height="30" viewBox="0 0 30 30" fill="none" xmlns="http://www.w3.org/2000/svg">
<g clip-path="url(#clip0_920_39)">
<path d="M17.7554 5.75379C18.2307 5.15414 18.5156 4.39705 18.5156 3.57422C18.5156 1.63945 16.9526 0 15 0C13.0454 0 11.4844 1.64098 11.4844 3.57422C11.4844 4.39705 11.7693 5.15414 12.2446 5.75379C10.7576 6.45902 9.72656 7.97438 9.72656 9.72656V11.4844C9.72656 11.9698 10.1201 12.3633 10.6055 12.3633H19.3945C19.8799 12.3633 20.2734 11.9698 20.2734 11.4844V9.72656C20.2734 7.97438 19.2424 6.45902 17.7554 5.75379ZM15 1.75781C15.9529 1.75781 16.7578 2.58961 16.7578 3.57422C16.7578 4.54348 15.9693 5.33203 15 5.33203C14.0307 5.33203 13.2422 4.54348 13.2422 3.57422C13.2422 2.58961 14.0471 1.75781 15 1.75781ZM18.5156 10.6055H11.4844V9.72656C11.4844 8.27268 12.6672 7.08984 14.1211 7.08984H15.8789C17.3328 7.08984 18.5156 8.27268 18.5156 9.72656V10.6055Z" fill="#124944"/>
<path d="M8.0874 23.3319C8.56271 22.7323 8.84766 21.9752 8.84766 21.1523C8.84766 19.2138 7.27055 17.6367 5.33203 17.6367C3.39352 17.6367 1.81641 19.2138 1.81641 21.1523C1.81641 21.9722 2.09924 22.7267 2.57145 23.3253C2.11564 23.5376 1.69389 23.8282 1.32352 24.1903C0.470039 25.0245 0 26.1306 0 27.3047V29.1211C0 29.6065 0.393516 30 0.878906 30H9.72656C10.212 30 10.6055 29.6065 10.6055 29.1211V27.3047C10.6055 25.5525 9.57439 24.0371 8.0874 23.3319ZM5.33203 19.3945C6.30129 19.3945 7.08984 20.1831 7.08984 21.1523C7.08984 22.1216 6.30129 22.9102 5.33203 22.9102C4.36277 22.9102 3.57422 22.1216 3.57422 21.1523C3.57422 20.1831 4.36277 19.3945 5.33203 19.3945ZM8.84766 28.2422H1.75781V27.3047C1.75781 25.8754 2.99209 24.668 4.45312 24.668H6.21094C7.66482 24.668 8.84766 25.8508 8.84766 27.3047V28.2422Z" fill="#124944"/>
<path d="M27.4286 23.3253C27.9008 22.7267 28.1836 21.9722 28.1836 21.1523C28.1836 19.2138 26.6065 17.6367 24.668 17.6367C22.7295 17.6367 21.1523 19.2138 21.1523 21.1523C21.1523 21.9752 21.4373 22.7323 21.9126 23.3319C20.4256 24.0371 19.3945 25.5525 19.3945 27.3047V29.1211C19.3945 29.6065 19.788 30 20.2734 30H29.1211C29.6065 30 30 29.6065 30 29.1211V27.3047C30 25.5265 28.9202 24.02 27.4286 23.3253ZM24.668 19.3945C25.6372 19.3945 26.4258 20.1831 26.4258 21.1523C26.4258 22.1216 25.6372 22.9102 24.668 22.9102C23.6987 22.9102 22.9102 22.1216 22.9102 21.1523C22.9102 20.1831 23.6987 19.3945 24.668 19.3945ZM28.2422 28.2422H21.1523V27.3047C21.1523 25.8508 22.3352 24.668 23.7891 24.668H25.5469C27.0079 24.668 28.2422 25.8754 28.2422 27.3047V28.2422Z" fill="#124944"/>
<path d="M18.9087 19.4873L15.8789 17.9724V15C15.8789 14.5146 15.4854 14.1211 15 14.1211C14.5146 14.1211 14.1211 14.5146 14.1211 15V17.9724L11.0913 19.4873C10.6571 19.7044 10.4812 20.2323 10.6983 20.6665C10.9155 21.1008 11.4435 21.2766 11.8775 21.0595L15 19.4983L18.1226 21.0596C18.5567 21.2766 19.0847 21.1007 19.3018 20.6665C19.5189 20.2324 19.3428 19.7044 18.9087 19.4873Z" fill="#785226"/>
</g>
<defs>
<clipPath id="clip0_920_39">
<rect width="30" height="30" fill="white"/>
</clipPath>
</defs>
</svg>
