<svg width="12" height="12" viewBox="0 0 12 12" fill="none" xmlns="http://www.w3.org/2000/svg">
<g clip-path="url(#clip0_857_349)">
<path d="M9.00027 0H3.00042C1.3506 0 0.000488281 1.35011 0.000488281 2.99993V9.00007C0.000488281 10.6494 1.3506 12 3.00042 12H9.00027C10.6501 12 12.0002 10.6494 12.0002 9.00007V2.99993C12.0002 1.35011 10.6501 0 9.00027 0ZM11.0002 9.00007C11.0002 10.1025 10.1034 11 9.00027 11H3.00042C1.8978 11 1.00051 10.1025 1.00051 9.00007V2.99993C1.00051 1.89716 1.8978 1.00002 3.00042 1.00002H9.00027C10.1034 1.00002 11.0002 1.89716 11.0002 2.99993V9.00007Z" fill="#124944"/>
<path d="M9.25047 3.49987C9.66467 3.49987 10.0005 3.16409 10.0005 2.74989C10.0005 2.33569 9.66467 1.99991 9.25047 1.99991C8.83627 1.99991 8.50049 2.33569 8.50049 2.74989C8.50049 3.16409 8.83627 3.49987 9.25047 3.49987Z" fill="#124944"/>
<path d="M5.99993 2.99994C4.34276 2.99994 3 4.34285 3 5.99987C3 7.65627 4.34276 9.00008 5.99993 9.00008C7.65662 9.00008 8.99985 7.65627 8.99985 5.99987C8.99985 4.34285 7.65662 2.99994 5.99993 2.99994ZM5.99993 8.00006C4.89549 8.00006 4.00002 7.10459 4.00002 5.99987C4.00002 4.89514 4.89549 3.99996 5.99993 3.99996C7.10436 3.99996 7.99983 4.89514 7.99983 5.99987C7.99983 7.10459 7.10436 8.00006 5.99993 8.00006Z" fill="#124944"/>
</g>
<defs>
<clipPath id="clip0_857_349">
<rect width="12" height="12" fill="white"/>
</clipPath>
</defs>
</svg>
