<svg width="12" height="12" viewBox="0 0 12 12" fill="none" xmlns="http://www.w3.org/2000/svg">
<path d="M10.7999 10.8V7.28402C10.7999 5.55602 10.4279 4.23602 8.41195 4.23602C7.43995 4.23602 6.79195 4.76402 6.52795 5.26802H6.50395V4.39202H4.59595V10.8H6.58795V7.62002C6.58795 6.78002 6.74395 5.97602 7.77595 5.97602C8.79595 5.97602 8.80795 6.92402 8.80795 7.66802V10.788H10.7999V10.8Z" fill="#124944"/>
<path d="M1.35596 4.392H3.34796V10.8H1.35596V4.392Z" fill="#124944"/>
<path d="M2.35195 1.20001C1.71595 1.20001 1.19995 1.71601 1.19995 2.35201C1.19995 2.98801 1.71595 3.51601 2.35195 3.51601C2.98795 3.51601 3.50395 2.98801 3.50395 2.35201C3.50395 1.71601 2.98795 1.20001 2.35195 1.20001Z" fill="#124944"/>
</svg>
