<svg width="16" height="16" viewBox="0 0 16 16" fill="none" xmlns="http://www.w3.org/2000/svg">
<g clip-path="url(#clip0_743_106)">
<path d="M15.8943 7.74365L12.258 4.10734C12.1274 3.95481 11.8978 3.93703 11.7453 4.06768C11.5927 4.1983 11.575 4.42786 11.7056 4.58039C11.7178 4.59461 11.731 4.60789 11.7453 4.62005L14.7597 7.63818H0.363619C0.16281 7.63818 0 7.80099 0 8.00183C0 8.20267 0.16281 8.36545 0.363619 8.36545H14.7597L11.7453 11.3799C11.5927 11.5106 11.575 11.7401 11.7056 11.8926C11.8363 12.0452 12.0658 12.0629 12.2183 11.9323C12.2325 11.9201 12.2458 11.9069 12.258 11.8926L15.8943 8.25633C16.0353 8.11455 16.0353 7.88549 15.8943 7.74365Z" fill="white"/>
</g>
<defs>
<clipPath id="clip0_743_106">
<rect width="16" height="16" fill="white"/>
</clipPath>
</defs>
</svg>
