<svg width="97" height="18" viewBox="0 0 97 18" fill="none" xmlns="http://www.w3.org/2000/svg">
<path d="M8.52 17.24C13.944 17.24 16.056 14.792 16.056 12.032C16.056 9.968 15 7.952 11.064 7.376L6.024 6.632C5.16 6.512 4.872 6.272 4.872 5.768C4.872 5.072 5.376 4.76 7.68 4.76C10.704 4.76 11.208 5.144 11.208 6.296V6.656H15.72V6.512C15.72 2.912 13.272 0.68 8.16 0.68C2.352 0.68 0.36 3.368 0.36 5.936C0.36 8.528 1.872 10.136 4.872 10.544L9.912 11.216C11.232 11.384 11.544 11.624 11.544 12.2C11.544 12.92 11.256 13.136 8.52 13.136C5.496 13.136 5.112 12.848 5.112 11.768V11.264H0.6V11.408C0.6 15.488 3.6 17.24 8.52 17.24ZM22.1182 17V11.288H25.4062L29.1503 17H34.5503L29.1022 8.816L34.6703 0.92H29.2703L25.3582 6.896H22.1182V0.92H17.6062V17H22.1182ZM44.3049 17.24C50.0409 17.24 53.3049 13.976 53.3049 8.96C53.3049 3.944 50.0409 0.68 44.3049 0.68C38.7129 0.68 35.4009 3.944 35.4009 8.96C35.4009 13.976 38.7129 17.24 44.3049 17.24ZM44.3049 12.92C41.0409 12.92 40.2009 12.152 40.2009 8.96C40.2009 5.768 41.0409 5 44.3049 5C47.5689 5 48.5049 5.768 48.5049 8.96C48.5049 12.152 47.5689 12.92 44.3049 12.92ZM63.6521 17.24C69.3881 17.24 72.6521 13.976 72.6521 8.96C72.6521 3.944 69.3881 0.68 63.6521 0.68C58.0601 0.68 54.7481 3.944 54.7481 8.96C54.7481 13.976 58.0601 17.24 63.6521 17.24ZM63.6521 12.92C60.3881 12.92 59.5481 12.152 59.5481 8.96C59.5481 5.768 60.3881 5 63.6521 5C66.9161 5 67.8521 5.768 67.8521 8.96C67.8521 12.152 66.9161 12.92 63.6521 12.92ZM88.1353 17V12.944H78.8473V0.92H74.3353V17H88.1353Z" fill="#124944"/>
<path d="M95.6233 11.72C95.6233 10.112 96.2473 4.448 96.2473 2.6V0.92H90.3913V2.6C90.3913 4.448 91.0153 10.088 91.0153 11.72H95.6233ZM95.8873 17V12.752H90.7273V17H95.8873Z" fill="#FFE931"/>
</svg>
