<svg width="30" height="30" viewBox="0 0 30 30" fill="none" xmlns="http://www.w3.org/2000/svg">
<path fill-rule="evenodd" clip-rule="evenodd" d="M14.9261 25.1665C22.0679 23.6347 23.0919 17.2418 23.2817 11.165C23.2979 10.6503 23.7286 10.2457 24.2433 10.2616C24.7578 10.2777 25.1626 10.7087 25.1464 11.2232C24.9282 18.2076 23.4373 25.3684 15.1083 27.0341H14.7425C8.69436 25.8244 6.2469 21.738 5.27929 16.8995C4.67033 13.8551 4.66406 10.507 4.66406 7.46266C4.66406 7.08139 4.89645 6.73818 5.25063 6.59669L14.5788 2.86527C14.8018 2.77617 15.0503 2.77639 15.2731 2.86572L24.5619 6.59714C25.0397 6.789 25.2716 7.33281 25.0797 7.81035C24.8879 8.28811 24.3441 8.52027 23.8663 8.32841L14.9245 4.73647L6.53033 8.094C6.5319 10.8468 6.56526 13.8164 7.10861 16.5336C7.9222 20.6013 9.91429 24.0916 14.9261 25.1665ZM13.9925 15.4718L17.0641 12.4001C17.4282 12.0361 18.0194 12.0361 18.3835 12.4001C18.7475 12.7642 18.7475 13.3554 18.3835 13.7194L14.652 17.4506C14.2878 17.8149 13.6972 17.8149 13.3329 17.4506L11.4671 15.585C11.1031 15.221 11.1031 14.6297 11.4671 14.2657C11.8312 13.9017 12.4224 13.9017 12.7864 14.2657L13.9925 15.4718Z" fill="#124944"/>
</svg>
